<svg width="64" height="24" viewBox="0 0 64 24" fill="none" xmlns="http://www.w3.org/2000/svg">
<path fill-rule="evenodd" clip-rule="evenodd" d="M12 6C8.68629 6 6 8.68629 6 12C6 15.3137 8.68629 18 12 18C15.3137 18 18 15.3137 18 12C18 8.68629 15.3137 6 12 6ZM0 12C0 5.37258 5.37258 0 12 0C18.6274 0 24 5.37258 24 12C24 18.6274 18.6274 24 12 24C5.37258 24 0 18.6274 0 12Z" fill="#572134"/>
<path fill-rule="evenodd" clip-rule="evenodd" d="M52 6C48.6863 6 46 8.68629 46 12C46 15.3137 48.6863 18 52 18C55.3137 18 58 15.3137 58 12C58 8.68629 55.3137 6 52 6ZM40 12C40 5.37258 45.3726 0 52 0C58.6274 0 64 5.37258 64 12C64 18.6274 58.6274 24 52 24C45.3726 24 40 18.6274 40 12Z" fill="#572134"/>
</svg>
