<?xml version="1.0" encoding="utf-8"?>
<!-- Generator: Adobe Illustrator 25.0.1, SVG Export Plug-In . SVG Version: 6.00 Build 0)  -->
<svg version="1.1" id="Capa_1" xmlns="http://www.w3.org/2000/svg" xmlns:xlink="http://www.w3.org/1999/xlink" x="0px" y="0px"
	 viewBox="0 0 576.56 589.62" style="enable-background:new 0 0 576.56 589.62;" xml:space="preserve">
<style type="text/css">
	.st0{clip-path:url(#SVGID_2_);fill:#63CFE3;}
	.st1{fill:#FF6B00;}
	.st2{clip-path:url(#SVGID_4_);fill:#63CFE3;}
	.st3{clip-path:url(#SVGID_4_);fill:#FF6B00;}
	.st4{fill:#63CFE3;}
	.st5{clip-path:url(#SVGID_6_);fill:#63CFE3;}
	.st6{clip-path:url(#SVGID_8_);fill:#63CFE3;}
	.st7{clip-path:url(#SVGID_10_);fill:#63CFE3;}
	.st8{clip-path:url(#SVGID_12_);fill:#FF6B00;}
</style>
<g>
	<defs>
		<rect id="SVGID_1_" y="0.56" width="576.56" height="588.5"/>
	</defs>
	<clipPath id="SVGID_2_">
		<use xlink:href="#SVGID_1_"  style="overflow:visible;"/>
	</clipPath>
	<path class="st0" d="M287.94,179.12c14.06,0,25.46-11.4,25.46-25.46c0-14.06-11.4-25.46-25.46-25.46
		c-14.07,0-25.46,11.4-25.46,25.46C262.48,167.72,273.88,179.12,287.94,179.12"/>
</g>
<rect x="284.27" y="201.33" class="st1" width="7.32" height="89.99"/>
<g>
	<defs>
		<rect id="SVGID_3_" y="0.56" width="576.56" height="588.5"/>
	</defs>
	<clipPath id="SVGID_4_">
		<use xlink:href="#SVGID_3_"  style="overflow:visible;"/>
	</clipPath>
	<path class="st2" d="M370.96,356.33V246.86c-33.13,0.06-62.82,11.68-83.03,33.42v106.7C308.14,365.24,337.83,356.39,370.96,356.33"
		/>
	<path class="st3" d="M204.91,356.33V246.86c33.13,0.06,62.82,11.68,83.03,33.42v106.7C267.73,365.24,238.04,356.39,204.91,356.33"
		/>
	<path class="st3" d="M240.25,153.66l47.68-47.68c-13.17-13.17-34.51-13.17-47.68,0C227.08,119.15,227.08,140.49,240.25,153.66"/>
	<path class="st3" d="M287.96,105.98l47.68,47.68c13.17-13.17,13.17-34.51,0-47.68C322.47,92.82,301.12,92.82,287.96,105.98"/>
	<path class="st3" d="M240.26,153.68l47.68,47.68c-13.17,13.17-34.51,13.17-47.68,0C227.1,188.19,227.1,166.84,240.26,153.68"/>
	<path class="st3" d="M287.94,201.35l47.68-47.68c13.17,13.17,13.17,34.51,0,47.68C322.46,214.52,301.11,214.52,287.94,201.35"/>
</g>
<path class="st4" d="M137.85,477.57h5.34l1.29-7.07h-5.3L137.85,477.57z M147.87,467.97H152v2.53h-4.62l-1.29,7.07h4.77v2.53h-5.26
	l-1.17,6.35h-2.91l1.17-6.35h-5.3l-1.17,6.35h-2.91l1.17-6.35h-4.13v-2.53h4.62l1.29-7.07h-4.77v-2.53h5.26l1.17-6.35h2.91
	l-1.18,6.35h5.3l1.17-6.35h2.91L147.87,467.97z"/>
<g>
	<defs>
		<rect id="SVGID_5_" y="0.56" width="576.56" height="588.5"/>
	</defs>
	<clipPath id="SVGID_6_">
		<use xlink:href="#SVGID_5_"  style="overflow:visible;"/>
	</clipPath>
	<path class="st5" d="M160.54,474.7v4.99c0,2.19,1.4,3.86,3.71,3.86c2.27,0,3.48-1.59,3.48-3.67v-5.33c0-2.08-1.21-3.66-3.48-3.66
		C161.94,470.88,160.54,472.54,160.54,474.7 M156.8,471.26h-2.5v-3.29h5.6l0.38,1.89c1.02-1.4,2.69-2.27,4.81-2.27
		c4.12,0,6.39,2.84,6.39,7.03v5.18c0,4.19-2.27,7.03-6.39,7.03c-1.93,0-3.52-0.76-4.54-1.96v5.48h2.57v3.17h-8.82v-3.17h2.5V471.26z
		"/>
	<path class="st5" d="M185.28,480.48v-1.66h-3.48c-1.51,0-3.25,0.34-3.25,2.5c0,1.55,0.98,2.49,3.1,2.49
		C183.77,483.8,185.28,482.25,185.28,480.48 M191.53,483.27v3.18h-5.6l-0.38-1.81c-0.98,1.36-2.68,2.19-4.76,2.19
		c-3.6,0-6.05-1.74-6.05-5.21c0-3.78,2.57-5.52,6.51-5.52h4.05v-2.3c0-1.77-1.14-3.1-3.25-3.1c-2.12,0-3.25,1.25-3.25,2.95v0.42
		h-3.63v-0.23c0-3.85,2.84-6.24,7-6.24c4.2,0,6.88,2.49,6.88,6.58v9.11H191.53z"/>
	<path class="st5" d="M201.17,486.83c-4.35,0-7.3-2.83-7.3-7.33v-4.57c0-4.5,2.69-7.33,6.59-7.33c2,0,3.59,0.72,4.69,2v-1.62h3.07
		v6.46h-3.26v-0.42c0-1.85-1.36-3.21-3.67-3.21c-2.31,0-3.63,1.62-3.63,3.82v5.18c0,2.19,1.29,3.82,3.52,3.82
		c2.31,0,3.52-1.32,3.52-3.29v-0.61h3.63v0.3C208.32,484.26,205.45,486.83,201.17,486.83"/>
	<path class="st5" d="M210.51,468.04h2.72v-4.99h3.78v4.99h4.31v3.21h-4.31v9.33c0,1.59,0.87,2.65,2.69,2.65h1.63v3.21h-1.85
		c-4.01,0-6.24-2-6.24-6.16v-9.03h-2.72V468.04z"/>
	<path class="st5" d="M227.8,479.8c0,2.19,1.33,3.82,3.63,3.82c2.31,0,3.63-1.62,3.63-3.82v-5.17c0-2.19-1.32-3.82-3.63-3.82
		c-2.31,0-3.63,1.62-3.63,3.82V479.8z M238.81,479.49c0,4.5-2.99,7.33-7.38,7.33c-4.39,0-7.38-2.83-7.38-7.33v-4.57
		c0-4.49,2.99-7.33,7.38-7.33c4.39,0,7.38,2.83,7.38,7.33V479.49z"/>
	<path class="st5" d="M247.78,474.7v4.99c0,2.19,1.4,3.86,3.71,3.86c2.27,0,3.48-1.59,3.48-3.67v-5.33c0-2.08-1.21-3.66-3.48-3.66
		C249.18,470.88,247.78,472.54,247.78,474.7 M244.03,471.26h-2.5v-3.29h5.6l0.38,1.89c1.02-1.4,2.69-2.27,4.81-2.27
		c4.12,0,6.39,2.84,6.39,7.03v5.18c0,4.19-2.27,7.03-6.39,7.03c-1.93,0-3.52-0.76-4.54-1.96v5.48h2.57v3.17h-8.82v-3.17h2.5V471.26z
		"/>
	<path class="st5" d="M265.9,479.8c0,2.19,1.33,3.82,3.63,3.82c2.31,0,3.63-1.62,3.63-3.82v-5.17c0-2.19-1.32-3.82-3.63-3.82
		c-2.31,0-3.63,1.62-3.63,3.82V479.8z M276.91,479.49c0,4.5-2.99,7.33-7.38,7.33c-4.39,0-7.38-2.83-7.38-7.33v-4.57
		c0-4.49,2.99-7.33,7.38-7.33c4.39,0,7.38,2.83,7.38,7.33V479.49z"/>
	<path class="st5" d="M282.54,471.26h-2.5v-3.29h5.6l0.42,2.19c0.95-1.51,2.54-2.57,4.58-2.57c0.3,0,0.64,0,1.02,0.11v3.55
		c-0.42-0.07-0.91-0.15-1.4-0.15c-2.23,0-3.97,1.32-3.97,3.82v8.35h2.99v3.17h-9.23v-3.17h2.5V471.26z"/>
</g>
<polygon class="st4" points="295.82,464.15 293.32,464.15 293.32,460.86 299.57,460.86 299.57,483.27 302.06,483.27 302.06,486.45 
	293.32,486.45 293.32,483.27 295.82,483.27 "/>
<g>
	<defs>
		<rect id="SVGID_7_" y="0.56" width="576.56" height="588.5"/>
	</defs>
	<clipPath id="SVGID_8_">
		<use xlink:href="#SVGID_7_"  style="overflow:visible;"/>
	</clipPath>
	<path class="st6" d="M315.15,480.48v-1.66h-3.48c-1.51,0-3.25,0.34-3.25,2.5c0,1.55,0.98,2.49,3.1,2.49
		C313.64,483.8,315.15,482.25,315.15,480.48 M321.4,483.27v3.18h-5.6l-0.38-1.81c-0.98,1.36-2.68,2.19-4.77,2.19
		c-3.6,0-6.05-1.74-6.05-5.21c0-3.78,2.57-5.52,6.51-5.52h4.05v-2.3c0-1.77-1.14-3.1-3.25-3.1c-2.12,0-3.26,1.25-3.26,2.95v0.42
		h-3.63v-0.23c0-3.85,2.84-6.24,7-6.24c4.2,0,6.88,2.49,6.88,6.58v9.11H321.4z"/>
</g>
<polygon class="st4" points="325.63,464.15 323.13,464.15 323.13,460.86 329.38,460.86 329.38,483.27 331.87,483.27 331.87,486.45 
	323.13,486.45 323.13,483.27 325.63,483.27 "/>
<g>
	<defs>
		<rect id="SVGID_9_" y="0.56" width="576.56" height="588.5"/>
	</defs>
	<clipPath id="SVGID_10_">
		<use xlink:href="#SVGID_9_"  style="overflow:visible;"/>
	</clipPath>
	<path class="st7" d="M338.3,475.15h7.11v-0.68c0-2.19-1.32-3.85-3.56-3.85c-2.23,0-3.56,1.66-3.56,3.85V475.15z M348.97,480.14
		v0.23c0,3.97-2.88,6.46-7.11,6.46c-4.31,0-7.26-2.76-7.26-7.14v-4.76c0-4.5,2.95-7.33,7.26-7.33c4.24,0,7.11,2.83,7.11,7.33v2.91
		H338.3v2.23c0,2.12,1.36,3.74,3.63,3.74c2.27,0,3.48-1.44,3.48-3.36v-0.3H348.97z"/>
	<path class="st7" d="M359.53,486.83c-4.35,0-7.3-2.83-7.3-7.33v-4.57c0-4.5,2.69-7.33,6.58-7.33c2.01,0,3.59,0.72,4.69,2v-1.62
		h3.07v6.46h-3.26v-0.42c0-1.85-1.36-3.21-3.67-3.21c-2.31,0-3.63,1.62-3.63,3.82v5.18c0,2.19,1.29,3.82,3.52,3.82
		c2.31,0,3.52-1.32,3.52-3.29v-0.61h3.63v0.3C366.68,484.26,363.8,486.83,359.53,486.83"/>
	<path class="st7" d="M368.87,468.04h2.72v-4.99h3.78v4.99h4.31v3.21h-4.31v9.33c0,1.59,0.87,2.65,2.69,2.65h1.63v3.21h-1.86
		c-4.01,0-6.24-2-6.24-6.16v-9.03h-2.72V468.04z"/>
	<path class="st7" d="M400.91,483.27v3.18h-5.6l-0.42-1.93c-0.98,1.4-2.68,2.3-4.8,2.3c-3.97,0-6.05-2.68-6.05-6.61v-8.96h-2.5
		v-3.29h6.28v12.1c0,2,1.1,3.48,3.21,3.48c2.23,0,3.63-1.66,3.63-3.86v-8.43h-2.54v-3.29h6.28v15.31H400.91z"/>
	<path class="st7" d="M405.94,471.26h-2.5v-3.29h5.6l0.42,2.19c0.95-1.51,2.54-2.57,4.58-2.57c0.3,0,0.64,0,1.02,0.11v3.55
		c-0.42-0.07-0.91-0.15-1.4-0.15c-2.23,0-3.97,1.32-3.97,3.82v8.35h2.99v3.17h-9.23v-3.17h2.5V471.26z"/>
	<path class="st7" d="M427.43,480.48v-1.66h-3.48c-1.51,0-3.25,0.34-3.25,2.5c0,1.55,0.98,2.49,3.1,2.49
		S427.43,482.25,427.43,480.48 M433.67,483.27v3.18h-5.6l-0.38-1.81c-0.98,1.36-2.68,2.19-4.77,2.19c-3.6,0-6.05-1.74-6.05-5.21
		c0-3.78,2.57-5.52,6.51-5.52h4.05v-2.3c0-1.77-1.14-3.1-3.25-3.1c-2.12,0-3.25,1.25-3.25,2.95v0.42h-3.63v-0.23
		c0-3.85,2.84-6.24,7-6.24c4.2,0,6.88,2.49,6.88,6.58v9.11H433.67z"/>
</g>
<polygon class="st1" points="98.18,408.48 93.98,408.48 93.98,403.41 108.67,403.41 108.67,408.48 104.29,408.48 104.29,436.25 
	115.6,436.25 115.6,431.36 121,431.36 121,441.66 93.98,441.66 93.98,436.6 98.18,436.6 "/>
<g>
	<defs>
		<rect id="SVGID_11_" y="0.56" width="576.56" height="588.5"/>
	</defs>
	<clipPath id="SVGID_12_">
		<use xlink:href="#SVGID_11_"  style="overflow:visible;"/>
	</clipPath>
	<path class="st8" d="M130.6,424.25h11.14v-1.05c0-3.38-2.07-5.94-5.57-5.94c-3.5,0-5.57,2.56-5.57,5.94V424.25z M147.31,431.94
		v0.35c0,6.11-4.5,9.96-11.14,9.96c-6.76,0-11.38-4.25-11.38-11.01v-7.34c0-6.93,4.62-11.29,11.38-11.29
		c6.63,0,11.14,4.37,11.14,11.29v4.48H130.6v3.43c0,3.26,2.13,5.76,5.69,5.76c3.55,0,5.45-2.21,5.45-5.18v-0.47H147.31z"/>
	<path class="st8" d="M163.84,442.25c-6.82,0-11.44-4.37-11.44-11.3v-7.04c0-6.93,4.21-11.29,10.31-11.29
		c3.14,0,5.63,1.11,7.35,3.09v-2.51h4.8v9.96h-5.1v-0.64c0-2.85-2.13-4.95-5.75-4.95c-3.61,0-5.69,2.5-5.69,5.88v7.98
		c0,3.38,2.02,5.88,5.51,5.88c3.61,0,5.51-2.04,5.51-5.07v-0.93h5.69v0.47C175.04,438.29,170.54,442.25,163.84,442.25"/>
	<path class="st8" d="M178.48,413.31h4.27v-7.68h5.92v7.68h6.76v4.95h-6.76v14.38c0,2.44,1.36,4.07,4.21,4.07h2.55v4.95h-2.9
		c-6.28,0-9.78-3.09-9.78-9.49v-13.92h-4.27V413.31z"/>
	<path class="st8" d="M228.67,436.77v4.89h-8.77l-0.65-2.97c-1.54,2.15-4.21,3.55-7.52,3.55c-6.22,0-9.48-4.13-9.48-10.19v-13.8
		h-3.91v-5.06h9.83v18.63c0,3.08,1.72,5.36,5.04,5.36c3.49,0,5.69-2.56,5.69-5.94v-12.99h-3.97v-5.06h9.84v23.58H228.67z"/>
	<path class="st8" d="M236.55,418.26h-3.91v-5.06h8.77l0.65,3.38c1.48-2.33,3.97-3.96,7.17-3.96c0.47,0,1.01,0,1.6,0.17v5.47
		c-0.65-0.12-1.42-0.23-2.19-0.23c-3.5,0-6.22,2.04-6.22,5.88v12.87h4.68v4.89h-14.46v-4.89h3.91V418.26z"/>
	<path class="st8" d="M270.86,432.47v-2.56h-5.45c-2.37,0-5.1,0.52-5.1,3.84c0,2.38,1.54,3.84,4.86,3.84
		C268.5,437.59,270.86,435.2,270.86,432.47 M280.64,436.77v4.89h-8.77l-0.59-2.8c-1.54,2.1-4.21,3.38-7.47,3.38
		c-5.63,0-9.48-2.68-9.48-8.04c0-5.82,4.03-8.5,10.19-8.5h6.34v-3.55c0-2.74-1.78-4.77-5.1-4.77c-3.32,0-5.1,1.92-5.1,4.54v0.64
		h-5.69v-0.35c0-5.94,4.44-9.61,10.96-9.61c6.58,0,10.78,3.84,10.78,10.13v14.03H280.64z"/>
	<path class="st8" d="M301.9,401.59c2.07,0,3.67,1.57,3.67,3.55c0,2.04-1.6,3.61-3.67,3.61c-2.07,0-3.67-1.57-3.67-3.61
		C298.23,403.17,299.83,401.59,301.9,401.59 M299.29,418.25h-3.91v-5.06h9.78v23.58h3.91v4.89h-13.69v-4.89h3.91V418.25z"/>
	<path class="st8" d="M333.66,423.31c0-3.2-1.78-5.65-5.28-5.65c-3.44,0-5.57,2.56-5.57,5.88v13.22h3.56v4.89h-13.33v-4.89h3.91
		v-18.52h-3.91v-5.07h8.77l0.59,3.03c1.6-2.21,4.21-3.61,7.47-3.61c6.34,0,9.66,4.25,9.66,10.48v13.68h3.91v4.89h-13.33v-4.89h3.56
		V423.31z"/>
	<path class="st8" d="M346.65,413.26h4.33v-2.56c0-6.52,3.61-10.02,10.31-10.02h2.73v4.95h-2.25c-3.5,0-4.86,1.86-4.86,4.72v2.91
		h6.75v4.89h-6.75v22.19c0,6.52-3.61,10.01-10.25,10.01h-2.73v-4.95h2.19c3.56,0,4.86-1.86,4.86-4.71v-22.54h-4.33V413.26z"/>
	<path class="st8" d="M373.96,401.59c2.07,0,3.67,1.57,3.67,3.55c0,2.04-1.6,3.61-3.67,3.61c-2.07,0-3.67-1.57-3.67-3.61
		C370.29,403.17,371.89,401.59,373.96,401.59 M371.35,418.25h-3.91v-5.06h9.78v23.58h3.91v4.89h-13.69v-4.89h3.91V418.25z"/>
	<path class="st8" d="M405.72,423.31c0-3.2-1.78-5.65-5.28-5.65c-3.44,0-5.57,2.56-5.57,5.88v13.22h3.56v4.89H385.1v-4.89h3.91
		v-18.52h-3.91v-5.07h8.77l0.59,3.03c1.6-2.21,4.21-3.61,7.47-3.61c6.34,0,9.66,4.25,9.66,10.48v13.68h3.91v4.89h-13.33v-4.89h3.56
		V423.31z"/>
	<path class="st8" d="M425.52,401.59c2.07,0,3.67,1.57,3.67,3.55c0,2.04-1.6,3.61-3.67,3.61c-2.07,0-3.67-1.57-3.67-3.61
		C421.84,403.17,423.44,401.59,425.52,401.59 M422.91,418.25H419v-5.06h9.78v23.58h3.91v4.89H419v-4.89h3.91V418.25z"/>
	<path class="st8" d="M435.35,413.3h4.27v-7.68h5.92v7.68h6.76v4.95h-6.76v14.38c0,2.44,1.36,4.07,4.21,4.07h2.55v4.95h-2.9
		c-6.28,0-9.78-3.09-9.78-9.49v-13.92h-4.27V413.3z"/>
	<path class="st8" d="M472.8,432.45v-2.56h-5.45c-2.37,0-5.1,0.52-5.1,3.84c0,2.39,1.54,3.84,4.86,3.84
		C470.43,437.58,472.8,435.19,472.8,432.45 M482.58,436.76v4.89h-8.77l-0.59-2.79c-1.54,2.1-4.21,3.38-7.47,3.38
		c-5.63,0-9.48-2.68-9.48-8.03c0-5.82,4.03-8.5,10.19-8.5h6.34v-3.55c0-2.74-1.78-4.77-5.1-4.77c-3.32,0-5.1,1.92-5.1,4.54v0.64
		h-5.69v-0.35c0-5.94,4.44-9.61,10.96-9.61c6.58,0,10.78,3.84,10.78,10.13v14.03H482.58z"/>
</g>
</svg>
