<svg width="360" height="6" viewBox="0 0 360 6" fill="none" xmlns="http://www.w3.org/2000/svg">
<g clip-path="url(#clip0)">
<path fill-rule="evenodd" clip-rule="evenodd" d="M-3 3C-3 1.34315 -1.65685 0 0 0H0.0248964C1.68175 0 3.0249 1.34315 3.0249 3C3.0249 4.65685 1.68175 6 0.0248964 6H0C-1.65685 6 -3 4.65685 -3 3ZM8.9751 3C8.9751 1.34315 10.3182 0 11.9751 0H12.0249C13.6818 0 15.0249 1.34315 15.0249 3C15.0249 4.65685 13.6818 6 12.0249 6H11.9751C10.3182 6 8.9751 4.65685 8.9751 3ZM20.9751 3C20.9751 1.34315 22.3183 0 23.9751 0H24.0249C25.6818 0 27.0249 1.34315 27.0249 3C27.0249 4.65685 25.6818 6 24.0249 6H23.9751C22.3183 6 20.9751 4.65685 20.9751 3ZM32.9751 3C32.9751 1.34315 34.3182 0 35.9751 0H36.0249C37.6818 0 39.0249 1.34315 39.0249 3C39.0249 4.65685 37.6818 6 36.0249 6H35.9751C34.3182 6 32.9751 4.65685 32.9751 3ZM44.9751 3C44.9751 1.34315 46.3183 0 47.9751 0H48.0249C49.6818 0 51.0249 1.34315 51.0249 3C51.0249 4.65685 49.6818 6 48.0249 6H47.9751C46.3183 6 44.9751 4.65685 44.9751 3ZM56.9751 3C56.9751 1.34315 58.3183 0 59.9751 0H60.0249C61.6818 0 63.0249 1.34315 63.0249 3C63.0249 4.65685 61.6818 6 60.0249 6H59.9751C58.3183 6 56.9751 4.65685 56.9751 3ZM68.9751 3C68.9751 1.34315 70.3183 0 71.9751 0H72.0249C73.6818 0 75.0249 1.34315 75.0249 3C75.0249 4.65685 73.6818 6 72.0249 6H71.9751C70.3183 6 68.9751 4.65685 68.9751 3ZM80.9751 3C80.9751 1.34315 82.3183 0 83.9751 0H84.0249C85.6817 0 87.0249 1.34315 87.0249 3C87.0249 4.65685 85.6817 6 84.0249 6H83.9751C82.3183 6 80.9751 4.65685 80.9751 3ZM92.9751 3C92.9751 1.34315 94.3183 0 95.9751 0H96.0249C97.6817 0 99.0249 1.34315 99.0249 3C99.0249 4.65685 97.6817 6 96.0249 6H95.9751C94.3183 6 92.9751 4.65685 92.9751 3ZM104.975 3C104.975 1.34315 106.318 0 107.975 0H108.025C109.682 0 111.025 1.34315 111.025 3C111.025 4.65685 109.682 6 108.025 6H107.975C106.318 6 104.975 4.65685 104.975 3ZM116.975 3C116.975 1.34315 118.318 0 119.975 0H120.025C121.682 0 123.025 1.34315 123.025 3C123.025 4.65685 121.682 6 120.025 6H119.975C118.318 6 116.975 4.65685 116.975 3ZM128.975 3C128.975 1.34315 130.318 0 131.975 0H132.025C133.682 0 135.025 1.34315 135.025 3C135.025 4.65685 133.682 6 132.025 6H131.975C130.318 6 128.975 4.65685 128.975 3ZM140.975 3C140.975 1.34315 142.318 0 143.975 0H144.025C145.682 0 147.025 1.34315 147.025 3C147.025 4.65685 145.682 6 144.025 6H143.975C142.318 6 140.975 4.65685 140.975 3ZM152.975 3C152.975 1.34315 154.318 0 155.975 0H156.025C157.682 0 159.025 1.34315 159.025 3C159.025 4.65685 157.682 6 156.025 6H155.975C154.318 6 152.975 4.65685 152.975 3ZM164.975 3C164.975 1.34315 166.318 0 167.975 0H168.025C169.682 0 171.025 1.34315 171.025 3C171.025 4.65685 169.682 6 168.025 6H167.975C166.318 6 164.975 4.65685 164.975 3ZM176.975 3C176.975 1.34315 178.318 0 179.975 0H180.025C181.682 0 183.025 1.34315 183.025 3C183.025 4.65685 181.682 6 180.025 6H179.975C178.318 6 176.975 4.65685 176.975 3ZM188.975 3C188.975 1.34315 190.318 0 191.975 0H192.025C193.682 0 195.025 1.34315 195.025 3C195.025 4.65685 193.682 6 192.025 6H191.975C190.318 6 188.975 4.65685 188.975 3ZM200.975 3C200.975 1.34315 202.318 0 203.975 0H204.025C205.682 0 207.025 1.34315 207.025 3C207.025 4.65685 205.682 6 204.025 6H203.975C202.318 6 200.975 4.65685 200.975 3ZM212.975 3C212.975 1.34315 214.318 0 215.975 0H216.025C217.682 0 219.025 1.34315 219.025 3C219.025 4.65685 217.682 6 216.025 6H215.975C214.318 6 212.975 4.65685 212.975 3ZM224.975 3C224.975 1.34315 226.318 0 227.975 0H228.025C229.682 0 231.025 1.34315 231.025 3C231.025 4.65685 229.682 6 228.025 6H227.975C226.318 6 224.975 4.65685 224.975 3ZM236.975 3C236.975 1.34315 238.318 0 239.975 0H240.025C241.682 0 243.025 1.34315 243.025 3C243.025 4.65685 241.682 6 240.025 6H239.975C238.318 6 236.975 4.65685 236.975 3ZM248.975 3C248.975 1.34315 250.318 0 251.975 0H252.025C253.682 0 255.025 1.34315 255.025 3C255.025 4.65685 253.682 6 252.025 6H251.975C250.318 6 248.975 4.65685 248.975 3ZM260.975 3C260.975 1.34315 262.318 0 263.975 0H264.025C265.682 0 267.025 1.34315 267.025 3C267.025 4.65685 265.682 6 264.025 6H263.975C262.318 6 260.975 4.65685 260.975 3ZM272.975 3C272.975 1.34315 274.318 0 275.975 0H276.025C277.682 0 279.025 1.34315 279.025 3C279.025 4.65685 277.682 6 276.025 6H275.975C274.318 6 272.975 4.65685 272.975 3ZM284.975 3C284.975 1.34315 286.318 0 287.975 0H288.025C289.682 0 291.025 1.34315 291.025 3C291.025 4.65685 289.682 6 288.025 6H287.975C286.318 6 284.975 4.65685 284.975 3ZM296.975 3C296.975 1.34315 298.318 0 299.975 0H300.025C301.682 0 303.025 1.34315 303.025 3C303.025 4.65685 301.682 6 300.025 6H299.975C298.318 6 296.975 4.65685 296.975 3ZM308.975 3C308.975 1.34315 310.318 0 311.975 0H312.025C313.682 0 315.025 1.34315 315.025 3C315.025 4.65685 313.682 6 312.025 6H311.975C310.318 6 308.975 4.65685 308.975 3ZM320.975 3C320.975 1.34315 322.318 0 323.975 0H324.025C325.682 0 327.025 1.34315 327.025 3C327.025 4.65685 325.682 6 324.025 6H323.975C322.318 6 320.975 4.65685 320.975 3ZM332.975 3C332.975 1.34315 334.318 0 335.975 0H336.025C337.682 0 339.025 1.34315 339.025 3C339.025 4.65685 337.682 6 336.025 6H335.975C334.318 6 332.975 4.65685 332.975 3ZM344.975 3C344.975 1.34315 346.318 0 347.975 0H348.025C349.682 0 351.025 1.34315 351.025 3C351.025 4.65685 349.682 6 348.025 6H347.975C346.318 6 344.975 4.65685 344.975 3ZM356.975 3C356.975 1.34315 358.318 0 359.975 0H360C361.657 0 363 1.34315 363 3C363 4.65685 361.657 6 360 6H359.975C358.318 6 356.975 4.65685 356.975 3Z" fill="white"/>
</g>
<defs>
<clipPath id="clip0">
<rect width="360" height="6" fill="white"/>
</clipPath>
</defs>
</svg>
