<svg width="360" height="14" viewBox="0 0 360 14" fill="none" xmlns="http://www.w3.org/2000/svg">
<g clip-path="url(#clip0)">
<path fill-rule="evenodd" clip-rule="evenodd" d="M-14 14C-14 6.26801 -7.73199 0 0 0H0.0249653C7.75695 0 14.025 6.26801 14.025 14C14.025 21.732 7.75695 28 0.0249653 28H0C-7.73199 28 -14 21.732 -14 14ZM21.975 14C21.975 6.26801 28.2431 0 35.975 0H36.025C43.757 0 50.025 6.26801 50.025 14C50.025 21.732 43.757 28 36.025 28H35.975C28.2431 28 21.975 21.732 21.975 14ZM57.975 14C57.975 6.26801 64.243 0 71.975 0H72.025C79.757 0 86.025 6.26801 86.025 14C86.025 21.732 79.757 28 72.025 28H71.975C64.243 28 57.975 21.732 57.975 14ZM93.975 14C93.975 6.26801 100.243 0 107.975 0H108.025C115.757 0 122.025 6.26801 122.025 14C122.025 21.732 115.757 28 108.025 28H107.975C100.243 28 93.975 21.732 93.975 14ZM129.975 14C129.975 6.26801 136.243 0 143.975 0H144.025C151.757 0 158.025 6.26801 158.025 14C158.025 21.732 151.757 28 144.025 28H143.975C136.243 28 129.975 21.732 129.975 14ZM165.975 14C165.975 6.26801 172.243 0 179.975 0H180.025C187.757 0 194.025 6.26801 194.025 14C194.025 21.732 187.757 28 180.025 28H179.975C172.243 28 165.975 21.732 165.975 14ZM201.975 14C201.975 6.26801 208.243 0 215.975 0H216.025C223.757 0 230.025 6.26801 230.025 14C230.025 21.732 223.757 28 216.025 28H215.975C208.243 28 201.975 21.732 201.975 14ZM237.975 14C237.975 6.26801 244.243 0 251.975 0H252.025C259.757 0 266.025 6.26801 266.025 14C266.025 21.732 259.757 28 252.025 28H251.975C244.243 28 237.975 21.732 237.975 14ZM273.975 14C273.975 6.26801 280.243 0 287.975 0H288.025C295.757 0 302.025 6.26801 302.025 14C302.025 21.732 295.757 28 288.025 28H287.975C280.243 28 273.975 21.732 273.975 14ZM309.975 14C309.975 6.26801 316.243 0 323.975 0H324.025C331.757 0 338.025 6.26801 338.025 14C338.025 21.732 331.757 28 324.025 28H323.975C316.243 28 309.975 21.732 309.975 14ZM345.975 14C345.975 6.26801 352.243 0 359.975 0H360C367.732 0 374 6.26801 374 14C374 21.732 367.732 28 360 28H359.975C352.243 28 345.975 21.732 345.975 14Z" fill="#572134"/>
</g>
<defs>
<clipPath id="clip0">
<rect width="360" height="14" fill="white"/>
</clipPath>
</defs>
</svg>
